<svg width="740" height="108" xmlns="http://www.w3.org/2000/svg" xmlns:xlink="http://www.w3.org/1999/xlink"><defs><path id="a" d="M0 0h740v110H0z"/></defs><g fill="none" fill-rule="evenodd"><mask id="b" fill="#fff"><use xlink:href="#a"/></mask><path d="M255 54.368A67.118 67.118 0 01272.009 25l49.73-50.302c25.965-26.263 68.06-26.263 94.025 0L465.494 25c15.182 15.356 21.487 36.291 18.915 56.28" stroke="#BBB" mask="url(#b)"/><path d="M505.594 91.12a29.736 29.736 0 01-42.392 0L440.78 68.44c-11.707-11.841-11.707-31.039 0-42.88l22.422-22.68a29.736 29.736 0 0142.392 0l22.422 22.68c11.706 11.841 11.706 31.039 0 42.88l-22.422 22.68zm240-10a29.736 29.736 0 01-42.392 0L680.78 58.44c-11.707-11.841-11.707-31.039 0-42.88l22.422-22.68a29.736 29.736 0 0142.392 0l22.422 22.68c11.706 11.841 11.706 31.039 0 42.88l-22.422 22.68zM160.94 87.782a32.54 32.54 0 01-46.391 0L90.01 62.962c-12.81-12.957-12.81-33.966 0-46.924l24.538-24.82a32.54 32.54 0 0146.391 0l24.537 24.82c12.81 12.958 12.81 33.966 0 46.924l-24.537 24.82z" fill="#DDD" opacity=".3" mask="url(#b)"/><path d="M676.726 92.26c-18.112 18.32-47.477 18.32-65.588 0l-34.69-35.089c-18.112-18.32-18.112-48.022 0-66.342l34.69-35.09c18.111-18.319 47.476-18.319 65.588 0l34.69 35.09c18.112 18.32 18.112 48.022 0 66.342l-34.69 35.09z" stroke="#B2D2ED" mask="url(#b)"/><path d="M285.116 61.3c-25.47 25.761-66.763 25.761-92.232 0l-48.782-49.344c-25.47-25.762-25.47-67.53 0-93.291l48.782-49.344c25.47-25.761 66.763-25.761 92.232 0l48.782 49.343c25.47 25.762 25.47 67.53 0 93.292L285.116 61.3zm-270 20c-25.47 25.761-66.763 25.761-92.232 0l-48.782-49.344c-25.47-25.762-25.47-67.53 0-93.291l48.782-49.344c25.47-25.761 66.763-25.761 92.232 0l48.782 49.343c25.47 25.762 25.47 67.53 0 93.292L15.116 81.3z" fill="#D7E8F5" opacity=".501" mask="url(#b)"/><path d="M594.864 40.573c-21.464 21.711-56.264 21.711-77.728 0L476.024-1.01c-21.464-21.71-21.464-56.91 0-78.622l41.112-41.584c21.464-21.71 56.264-21.71 77.728 0l41.112 41.584c21.464 21.711 21.464 56.911 0 78.622l-41.112 41.584z" fill="#D7E8F5" opacity=".496" mask="url(#b)"/><path d="M64.76 97.617a31.419 31.419 0 01-44.792 0L-3.723 73.653c-12.37-12.51-12.37-32.795 0-45.306l23.69-23.964a31.419 31.419 0 0144.793 0l23.69 23.964c12.37 12.51 12.37 32.795 0 45.306L64.76 97.617z" stroke="#B2D2ED" mask="url(#b)"/></g></svg>